<svg height="512pt" viewBox="0 0 512 512" width="512pt" xmlns="http://www.w3.org/2000/svg"><path d="m437.019531 74.980469c-48.351562-48.351563-112.640625-74.980469-181.019531-74.980469s-132.667969 26.628906-181.019531 74.980469c-48.351563 48.351562-74.980469 112.640625-74.980469 181.019531s26.628906 132.667969 74.980469 181.019531c48.351562 48.351563 112.640625 74.980469 181.019531 74.980469s132.667969-26.628906 181.019531-74.980469c48.351563-48.351562 74.980469-112.640625 74.980469-181.019531s-26.628906-132.667969-74.980469-181.019531zm-407.019531 181.019531c0-60.367188 23.507812-117.121094 66.195312-159.804688 42.683594-42.6875 99.4375-66.195312 159.804688-66.195312 55.339844 0 107.632812 19.769531 148.84375 55.941406l-318.902344 318.902344c-36.171875-41.210938-55.941406-93.503906-55.941406-148.84375zm385.804688 159.804688c-42.683594 42.6875-99.4375 66.195312-159.804688 66.195312-55.339844 0-107.632812-19.769531-148.84375-55.941406l318.902344-318.902344c36.171875 41.210938 55.941406 93.503906 55.941406 148.84375 0 60.367188-23.507812 117.121094-66.195312 159.804688zm0 0"/><path d="m271 96h-30c-24.851562 0-45 20.148438-45 45h-60c-24.851562 0-45 20.148438-45 45v140c0 8.933594 2.613281 17.253906 7.105469 24.253906l75.097656-75.097656c-1.425781-6.160156-2.203125-12.566406-2.203125-19.15625 0-46.867188 38.132812-85 85-85 6.589844 0 12.996094.777344 19.15625 2.203125l40.132812-40.132813c-3.746093-21.066406-22.144531-37.070312-44.289062-37.070312zm0 0"/><path d="m338.796875 236.84375c1.425781 6.160156 2.203125 12.566406 2.203125 19.15625 0 46.867188-38.128906 85-85 85-6.589844 0-12.996094-.777344-19.15625-2.203125l-32.203125 32.203125h171.359375c24.851562 0 45-20.148438 45-45v-140c0-8.933594-2.613281-17.253906-7.105469-24.253906zm0 0"/><path d="m196.132812 252.230469 56.097657-56.101563c-30.085938 1.878906-54.222657 26.015625-56.097657 56.101563zm0 0"/><path d="m315.867188 259.769531-56.097657 56.097657c30.085938-1.875 54.222657-26.011719 56.097657-56.097657zm0 0"/></svg>